<?xml version="1.0" standalone="no"?><!-- Generator: Gravit.io --><svg xmlns="http://www.w3.org/2000/svg" xmlns:xlink="http://www.w3.org/1999/xlink" style="isolation:isolate" viewBox="2.49 0 279.088 54" width="279.088" height="54"><path d=" M 190.4 0 L 165.7 0 C 159.5 0 153.7 2.2 148.6 6.6 C 143.4 10.9 140.3 16.2 139.1 22.3 L 133.4 53.6 L 147.6 53.6 L 149.7 42 L 191.2 42 L 189.1 53.6 L 203.3 53.6 L 209 22.3 C 209.3 20.9 209.4 19.6 209.4 18.3 C 209.4 13 207.6 8.7 204 5.3 C 200.4 1.7 196 0 190.4 0 Z  M 152.1 28.8 L 153.3 22 C 153.7 19.6 154.9 17.6 156.7 16.1 C 158.7 14.5 160.8 13.7 163.2 13.7 L 187.8 13.7 C 189.9 13.7 191.6 14.4 192.9 15.5 C 194.3 16.7 194.9 18.4 194.9 20.4 C 194.9 20.9 194.9 21.5 194.8 21.9 L 193.6 28.7 L 152.1 28.7 L 152.1 28.8 Z  M 271 0.3 L 238 0.3 C 231.8 0.3 226.1 2.4 221 6.7 C 215.9 10.9 212.8 16.2 211.8 22.3 L 210.1 32.1 C 209.8 33.5 209.7 34.6 209.7 36 C 209.7 41.1 211.4 45.4 214.9 48.9 C 218.4 52.3 222.8 54 228.2 54 C 228.2 54 228.4 54 228.4 54 L 253.1 53.9 C 259.3 53.9 265 51.6 270 47.4 C 275.1 43.2 278.2 38.1 279.2 32 L 281.6 18.7 L 252.9 18.7 L 250.4 32.4 L 265.1 32.4 C 264.7 34.6 263.5 36.6 261.6 38.2 C 259.6 39.8 257.5 40.6 255.1 40.6 L 230.7 40.6 C 228.6 40.6 227.1 39.9 225.7 38.7 C 224.4 37.4 223.9 35.8 223.9 34 C 223.9 33.5 223.9 32.9 224 32.5 L 225.9 22.1 C 226.3 19.9 227.4 17.9 229.3 16.3 C 231.1 14.8 233.2 14 235.6 14 L 268.5 14 L 271 0.3 Z  M 73.1 0 L 34.1 0 C 28 0 22.5 2.1 17.4 6.3 C 12.4 10.5 9.2 15.7 8.2 21.7 L 2.5 53.6 L 16.3 53.6 L 18.6 40.7 L 58.2 40.7 L 60.6 27.7 L 21.1 27.7 L 22.2 21.3 C 22.6 19.1 23.8 17.1 25.7 15.5 C 27.5 14 29.6 13.2 32 13.2 L 70.8 13.2 L 73.1 0 Z  M 93.5 0 L 79.1 0 L 73.6 31.2 C 73.3 32.5 73.2 33.8 73.2 35.2 C 73.2 40.4 75.1 44.9 78.6 48.3 C 82.2 51.9 86.8 53.6 92.4 53.6 L 129.2 53.6 L 131.7 39.8 L 94.9 39.8 C 92.8 39.8 91.1 39.1 89.8 37.9 C 88.5 36.6 87.8 35 87.8 33.1 C 87.8 32.5 87.8 32 88 31.6 L 93.5 0 Z " id="logo-flag" fill="rgb(255,255,255)"/></svg>